<?xml version="1.0" encoding="UTF-8"?>
<svg width="1200pt" height="1200pt" version="1.1" viewBox="0 0 1200 1200" xmlns="http://www.w3.org/2000/svg">
 <g>
  <path d="m560 917.36v102.62c0 33-27 60-60 60s-60-27-60-60v-102.62z"/>
  <path d="m760 917.36v102.62c0 33-27 60-60 60s-60-27-60-60v-102.62z"/>
  <path d="m860 539.98v320c0 44.199-35.801 80-80 80h-360c-44.199 0-80-35.801-80-80v-320c0-44.199 35.801-80 80-80h360c44.199 0 80 35.801 80 80z"/>
  <path d="m796.6 150.98-53.16 80c-11.398-7.1992-23.398-13.199-36-18l55.961-84c6-9.1992 18.398-11.801 27.602-5.6016 9.1953 6 11.797 18.402 5.5977 27.602z"/>
  <path d="m492.52 214.6c-12.602 4.8008-24.602 10.801-36 18l-53.121-81.621c-6.1992-9.1992-3.6016-21.602 5.6016-27.602 9.1992-6.1992 21.602-3.6016 27.602 5.6016z"/>
  <path d="m1020 579.98v160c0 33-27 60-60 60s-60-27-60-60v-160c0-33 27-60 60-60s60 27 60 60z"/>
  <path d="m300 579.98v160c0 33-27 60-60 60s-60-27-60-60v-160c0-33 27-60 60-60s60 27 60 60z"/>
  <path d="m755.8 212.98c-11.398-7.1992-23.398-13.199-36-18-24.602-9.8008-51.602-15-79.801-15h-80c-28.199 0-55.199 5.1992-79.801 15-12.602 4.8008-24.602 10.801-36 18-62.602 38.801-104.2 108-104.2 187 0 11 9 20 20 20h480c11 0 20-9 20-20 0-79-41.602-148.2-104.2-187zm-215.8 107h-20c-11 0-20-9-20-20s9-20 20-20h20c11 0 20 9 20 20s-9 20-20 20zm140 0h-20c-11 0-20-9-20-20s9-20 20-20h20c11 0 20 9 20 20s-9 20-20 20z"/>
 </g>
</svg>
