<svg width="50" height="50" viewBox="0 0 50 50" fill="none" xmlns="http://www.w3.org/2000/svg">
<path fill-rule="evenodd" clip-rule="evenodd" d="M13.9885 5.75L12.3635 8.6504L18.5375 19.0994L23.6115 12.2984C19.6466 10.9996 16.4455 8.80815 14.012 5.7244L13.9885 5.75ZM8.03747 6.625C8.57067 6.0586 9.33827 5.7578 10.3383 5.7246H12.2641L13.4887 3.75H36.2387L37.5395 5.7754L39.7153 5.70118L39.7407 5.72657C40.7407 5.75977 41.5083 6.06056 42.0415 6.62697C42.5923 7.19337 42.8657 8.00197 42.8657 9.05277L42.8637 46.2503H7.13721L7.26221 9.02577C7.26221 7.99257 7.52197 7.19177 8.03761 6.62537L8.03747 6.625ZM35.7875 5.7246C34.1879 7.7246 31.8129 9.625 28.6625 11.4236C27.8617 11.7576 27.0375 12.0486 26.1879 12.2986L31.2389 19.0741L37.4149 8.6481L35.7875 5.7246ZM23.813 20.8006L18.762 35.5876L18.7366 35.5993L17.9358 37.9743L24.8848 43.2983L31.8633 37.9743L29.1621 30.1248H29.1875L25.9629 20.8008L23.813 20.8006ZM27.6138 16.7245L24.9146 13.0995L22.19 16.7245L23.7154 19.2987H26.0904L27.6138 16.7245Z" fill="black"/>
</svg>
