<svg width="50" height="50" viewBox="0 0 50 50" fill="none" xmlns="http://www.w3.org/2000/svg">
<path d="M30.291 2.63672V8.65822H36.3025L30.291 2.63672Z" fill="black"/>
<path d="M38.365 32.4434C37.8025 33.1798 36.9666 33.5977 36.0584 33.5977C35.1619 33.5977 34.3006 33.17 33.7576 32.4512L32.4724 30.7325L31.2498 30.9082V43.2697C31.2498 43.6643 31.49 44.01 31.8455 44.1643C32.2009 44.3088 32.615 44.2307 32.8943 43.9514L36.0584 40.7893L39.2322 43.9534C39.4138 44.135 39.6541 44.2307 39.9041 44.2307C40.0291 44.2307 40.1541 44.2112 40.2693 44.1643C40.6346 44.01 40.865 43.6643 40.865 43.2697V30.9062L39.6502 30.7305L38.365 32.4434Z" fill="black"/>
<path d="M37.0195 10.58H36.3828C36.6035 10.6053 36.8145 10.6522 37.0195 10.7225V10.58Z" fill="black"/>
<path d="M34.254 45.3125C33.7091 45.8574 32.9844 46.1582 32.211 46.1582C31.838 46.1582 31.4708 46.0859 31.1231 45.9453C30.0157 45.4668 29.3262 44.4218 29.3262 43.2695V30.998C28.7715 30.8788 28.2676 30.6015 27.8672 30.1855C27.2481 29.5663 26.9453 28.6425 27.0899 27.7441L27.3867 25.6542L25.6699 24.3652C24.9355 23.8066 24.5176 22.9687 24.5176 22.0585C24.5176 21.162 24.9453 20.3007 25.6621 19.7577L27.3867 18.4687L27.086 16.3476C26.9473 15.4804 27.2481 14.5527 27.8985 13.9023C28.4434 13.3574 29.1661 13.0566 29.9317 13.0566C30.0781 13.0566 30.2246 13.0683 30.3731 13.0917L32.4688 13.3886L33.7481 11.6777C34.2246 11.0507 34.9512 10.6699 35.7344 10.582H28.3674V1.92395H7.21141C5.62546 1.92395 4.32666 3.2228 4.32666 4.8087V45.1937C4.32666 46.7894 5.62551 48.0785 7.21141 48.0785H34.1354C35.7311 48.0785 37.0202 46.7894 37.0202 45.1937V44.4633L36.0612 43.5062L34.254 45.3125ZM22.598 40.3886H10.098C9.56671 40.3886 9.13701 39.9589 9.13701 39.4277C9.13701 38.8964 9.5667 38.4667 10.098 38.4667H22.598C23.1292 38.4667 23.5589 38.8964 23.5589 39.4277C23.5609 39.957 23.1292 40.3886 22.598 40.3886ZM22.598 34.6191H10.098C9.56671 34.6191 9.13701 34.1894 9.13701 33.6582C9.13701 33.1269 9.5667 32.6972 10.098 32.6972H22.598C23.1292 32.6972 23.5589 33.1269 23.5589 33.6582C23.5609 34.1875 23.1292 34.6191 22.598 34.6191ZM22.598 28.8496H10.098C9.56671 28.8496 9.13701 28.4199 9.13701 27.8887C9.13701 27.3574 9.5667 26.9277 10.098 26.9277H22.598C23.1292 26.9277 23.5589 27.3574 23.5589 27.8887C23.5609 28.4199 23.1292 28.8496 22.598 28.8496ZM22.598 23.0801H10.098C9.56671 23.0801 9.13701 22.6504 9.13701 22.1192C9.13701 21.5879 9.5667 21.1582 10.098 21.1582H22.598C23.1292 21.1582 23.5589 21.5879 23.5589 22.1192C23.5609 22.6504 23.1292 23.0801 22.598 23.0801ZM22.598 17.3106H10.098C9.56671 17.3106 9.13701 16.8809 9.13701 16.3497C9.13701 15.8184 9.5667 15.3887 10.098 15.3887H22.598C23.1292 15.3887 23.5589 15.8184 23.5589 16.3497C23.5609 16.8809 23.1292 17.3106 22.598 17.3106ZM22.598 11.5411H10.098C9.56671 11.5411 9.13701 11.1114 9.13701 10.5802C9.13701 10.0489 9.5667 9.61921 10.098 9.61921H22.598C23.1292 9.61921 23.5589 10.0489 23.5589 10.5802C23.5609 11.1114 23.1292 11.5411 22.598 11.5411Z" fill="black"/>
<path d="M45.6739 22.0585C45.6739 21.7597 45.5294 21.4725 45.2892 21.2889L42.6642 19.328L43.1349 16.078C43.1739 15.7792 43.0763 15.4725 42.8556 15.2616C42.6446 15.0507 42.3458 14.9452 42.0392 14.9921L38.7989 15.453L36.8282 12.828C36.463 12.3475 35.6544 12.3475 35.2892 12.828L33.3282 15.453L30.0782 14.9921C29.7696 14.9432 29.4728 15.0507 29.2618 15.2616C29.0509 15.4725 28.9454 15.7811 28.9923 16.078L29.4532 19.328L26.8282 21.2889C26.5861 21.4706 26.4415 21.7597 26.4415 22.0585C26.4415 22.3671 26.5861 22.6444 26.8263 22.828L29.4513 24.7987L28.9904 28.0487C28.9415 28.3476 29.0489 28.6444 29.2599 28.8573C29.4708 29.0781 29.7696 29.1737 30.0763 29.1366L33.3263 28.6659L35.2872 31.2909C35.4708 31.5312 35.7579 31.6757 36.0568 31.6757C36.3654 31.6757 36.6427 31.5312 36.8263 31.2909L38.797 28.6659L42.0373 29.1366C42.3459 29.1757 42.6427 29.078 42.8537 28.8573C43.0744 28.6464 43.1701 28.3476 43.133 28.0487L42.6623 24.7987L45.2873 22.828C45.5295 22.6445 45.674 22.3652 45.674 22.0585H45.6739ZM36.0589 24.9413C34.473 24.9413 33.1742 23.6522 33.1742 22.0565C33.1742 20.4706 34.473 19.1718 36.0589 19.1718C37.6546 19.1718 38.9437 20.4706 38.9437 22.0565C38.9417 23.6542 37.6546 24.9413 36.0589 24.9413Z" fill="black"/>
</svg>
