<svg width="30" height="30" viewBox="0 0 30 30" fill="none" xmlns="http://www.w3.org/2000/svg">
<path d="M8.56558 3.48267C10.1939 3.48267 11.8291 4.09251 13.1548 5.33606L14.9999 7.06649L16.8443 5.33618C18.1709 4.09263 19.8057 3.48315 21.434 3.48315C23.3937 3.48315 25.3427 4.3664 26.7275 6.09133C29.2638 9.24879 28.9504 14.0312 26.0284 16.7722L25.6871 17.0929L15 27.1174L4.3123 17.092L3.97104 16.7713C1.04862 14.0303 0.736848 9.24789 3.27264 6.09043C4.65821 4.36551 6.60614 3.48213 8.56586 3.48249M8.56586 1.79995C6.08172 1.7996 3.72384 2.96129 2.0972 4.98791C0.597394 6.85452 -0.139269 9.23991 0.0217629 11.7058C0.183099 14.1717 1.22277 16.4219 2.94999 18.0417L3.29189 18.3627L13.9801 28.3879C14.2722 28.6627 14.637 28.7998 15.0002 28.7998C15.3634 28.7998 15.7286 28.6623 16.0204 28.3879L26.708 18.3624L27.0486 18.0424C28.7766 16.4216 29.8173 14.1716 29.9783 11.7057C30.1393 9.23985 29.402 6.85425 27.9028 4.98746C26.2762 2.9618 23.9181 1.7998 21.4342 1.7998C19.3739 1.7998 17.3825 2.6041 15.8242 4.06429L15.0003 4.83857L14.1764 4.06546C12.6187 2.60446 10.6262 1.7998 8.56611 1.7998L8.56586 1.79995Z" fill="#AB9E09"/>
</svg>
