<svg width="30" height="30" viewBox="0 0 30 30" fill="none" xmlns="http://www.w3.org/2000/svg">
<path d="M30 10.3008C30 5.6058 26.1886 1.7998 21.4857 1.7998C18.8983 1.7998 16.5852 2.9575 15.0241 4.77684L14.9999 4.75604L14.9791 4.77684C13.4155 2.9575 11.1018 1.7998 8.51378 1.7998C3.81172 1.7998 0 5.60543 0 10.3008C0 12.883 1.15881 15.197 2.98088 16.7564L2.96005 16.7784L15 28.7998L27.0406 16.7784L27.0183 16.7562C28.8406 15.197 30 12.883 30 10.3006V10.3008ZM4.71471 12.3586C4.71471 12.3586 2.89015 9.62761 5.82917 6.89402C8.76818 4.16185 11.1003 6.89402 11.1003 6.89402C5.32233 7.90632 4.71466 12.3586 4.71466 12.3586H4.71471Z" fill="#AB9E09"/>
</svg>
