<svg id="svg" xmlns="http://www.w3.org/2000/svg" xmlns:xlink="http://www.w3.org/1999/xlink" width="400" height="400" viewBox="0, 0, 400,400"><g id="svgg"><path id="path0" d="M7.944 1.676 C 5.963 2.657,3.695 4.657,2.475 6.501 L 0.391 9.651 0.191 199.491 L -0.009 389.331 1.641 392.741 C 2.549 394.616,4.567 397.017,6.124 398.075 L 8.956 400.000 200.284 400.000 L 391.612 400.000 394.204 398.398 C 395.630 397.517,397.517 395.630,398.398 394.204 L 400.000 391.612 400.000 200.284 L 400.000 8.956 398.075 6.124 C 397.017 4.567,394.621 2.551,392.751 1.646 L 389.350 0.000 200.339 0.001 L 11.328 0.001 7.944 1.676 M100.355 60.482 C 105.569 62.660,105.830 63.760,106.113 84.729 C 106.394 105.485,106.012 108.121,102.270 111.271 L 99.880 113.281 76.515 113.281 L 53.150 113.281 50.598 111.003 L 48.047 108.724 47.817 87.242 L 47.586 65.759 50.003 63.007 C 53.091 59.489,52.202 59.606,76.783 59.481 C 93.255 59.398,98.270 59.610,100.355 60.482 M300.058 143.215 C 330.087 150.995,345.939 167.633,351.304 197.004 C 352.472 203.398,352.672 212.203,352.926 268.441 L 353.215 332.585 351.159 335.029 C 347.921 338.877,345.522 339.201,322.266 338.923 C 291.535 338.557,295.043 346.369,294.442 276.953 C 293.908 215.214,293.791 213.720,288.696 203.409 C 273.967 173.608,223.060 181.852,211.773 215.867 C 208.027 227.155,207.608 233.317,207.110 284.411 C 206.673 329.210,206.543 332.643,205.213 334.672 C 202.468 338.857,200.455 339.154,176.561 338.902 C 152.719 338.650,151.988 338.505,149.426 333.518 C 147.843 330.440,148.017 153.861,149.605 150.790 C 152.012 146.135,152.242 146.094,175.643 146.094 L 197.031 146.094 199.687 148.750 L 202.344 151.406 202.422 160.273 C 202.559 175.903,204.042 176.876,213.610 167.613 C 228.317 153.376,243.971 144.976,260.938 142.218 C 264.160 141.694,267.324 141.138,267.969 140.982 C 272.200 139.959,293.105 141.414,300.058 143.215 M101.434 147.199 C 106.103 149.613,105.859 144.391,105.859 242.188 C 105.859 339.392,106.087 334.269,101.629 337.300 C 99.851 338.508,97.085 338.702,78.516 338.923 C 55.318 339.200,52.856 338.872,49.667 335.082 L 47.656 332.693 47.656 242.049 L 47.656 151.406 50.313 148.750 L 52.969 146.094 76.133 146.094 C 94.574 146.094,99.732 146.319,101.434 147.199 " stroke="none" fill="#000000" fill-rule="evenodd"></path></g></svg>