<svg width="50" height="50" viewBox="0 0 50 50" fill="none" xmlns="http://www.w3.org/2000/svg">
<path d="M42.9691 42.1875C42.9769 44.3184 41.5238 46.1797 39.4535 46.6875C34.725 47.8535 29.8715 48.4414 25.0005 48.4375C20.1294 48.4375 15.276 47.8438 10.5475 46.6719C8.48301 46.1641 7.03186 44.3125 7.03186 42.1875C7.03186 35.7675 10.4577 29.836 16.0164 26.627C21.5749 23.4161 28.4264 23.4161 33.9854 26.627C39.5439 29.836 42.9699 35.7675 42.9699 42.1875H42.9691ZM25.0001 3.125C22.7208 3.125 20.5352 4.03125 18.9241 5.6426C17.3129 7.25395 16.4065 9.4395 16.4065 11.7186V13.2811C16.4065 16.3514 18.0451 19.1891 20.7034 20.7246C23.3616 22.2578 26.6389 22.2578 29.2974 20.7246C31.9556 19.1895 33.5943 16.3516 33.5943 13.2811V11.7186C33.5943 9.4393 32.688 7.25375 31.0767 5.6426C29.4653 4.03145 27.2798 3.125 25.0007 3.125H25.0001ZM16.9691 38.1875C17.641 36.8477 18.6292 35.6953 19.8519 34.8281C20.557 34.3301 20.7249 33.3535 20.2269 32.6484C19.7288 31.9433 18.7523 31.7754 18.0472 32.2734C16.3929 33.4336 15.0511 34.9863 14.1409 36.789C13.7581 37.5605 14.0726 38.498 14.844 38.8828C15.0628 38.9921 15.303 39.0468 15.5471 39.0468C16.1467 39.0566 16.6995 38.7226 16.969 38.1874L16.9691 38.1875Z" fill="black"/>
</svg>
