<svg width="50" height="50" viewBox="0 0 50 50" fill="none" xmlns="http://www.w3.org/2000/svg">
<path d="M12.2728 5.00005C11.2682 5.00005 10.4546 5.81366 10.4546 6.81823V35.9091C10.4546 36.9137 11.2682 37.7273 12.2728 37.7273H45C46.0046 37.7273 46.8182 36.9137 46.8182 35.9091V14.0909C46.8182 13.0864 46.0046 12.2728 45 12.2728H28.4298L24.7548 5.90885C24.4299 5.34748 23.8321 4.99976 23.1821 4.99976L12.2728 5.00005Z" fill="black"/>
<path d="M5.00006 12.2727C3.9955 12.2727 3.18188 13.0863 3.18188 14.0909V43.1818C3.18188 44.1863 3.9955 44.9999 5.00006 44.9999H37.7273C38.7319 44.9999 39.5455 44.1863 39.5455 43.1818C39.5455 42.1772 38.7319 41.3636 37.7273 41.3636H6.81824V14.0909C6.81824 13.0863 6.00463 12.2727 5.00006 12.2727Z" fill="black"/>
</svg>
