<svg width="50" height="50" viewBox="0 0 50 50" fill="none" xmlns="http://www.w3.org/2000/svg">
<path d="M3.29376 7.00137C2.55882 7.0746 2.00002 7.6908 2.00002 8.4249V41.5658C1.99642 42.3534 2.6379 42.9964 3.43213 43H46.5571C46.9398 43.0018 47.3082 42.8499 47.5795 42.5802C47.849 42.3123 48.0018 41.9462 48 41.5657V8.42487C47.9964 7.6354 47.3513 6.99777 46.5571 7.00134H3.43216C3.38544 6.99955 3.34052 6.99955 3.2938 7.00134L3.29376 7.00137ZM14.8586 12.8115C17.5 12.8115 19.6762 14.9638 19.6762 17.5893C19.6762 20.2148 17.4984 22.3779 14.8586 22.3779C12.2172 22.3779 10.0521 20.2132 10.0521 17.5893C10.0521 14.9637 12.2173 12.8115 14.8586 12.8115ZM35.2692 13.2491C36.7211 13.2473 37.9861 14.1333 38.5449 15.3835H40.367L40.3688 15.3853C41.163 15.3853 41.808 16.0247 41.808 16.816C41.808 17.6055 41.163 18.2449 40.3688 18.2449H38.5449C37.9825 19.4934 36.7229 20.3757 35.271 20.3757C33.821 20.3739 32.5632 19.4916 32.0025 18.2449H23.7207C22.9247 18.2859 22.2473 17.6787 22.2059 16.8892C22.1664 16.0998 22.7755 15.4264 23.5716 15.3853C23.6201 15.3817 23.6704 15.3817 23.7207 15.3853H31.997C32.5576 14.1368 33.819 13.2509 35.2709 13.2509L35.2692 13.2491ZM29.194 21.7831C30.6459 21.7831 31.9073 22.669 32.4679 23.9175H40.3689V23.9193C40.7552 23.9103 41.1289 24.0568 41.4057 24.3265C41.6824 24.5944 41.8387 24.9641 41.8387 25.3482C41.8387 25.7322 41.6824 26.1001 41.4057 26.3698C41.129 26.6395 40.7552 26.786 40.3689 26.7771H32.4716C31.911 28.0238 30.6478 28.9043 29.1941 28.9043C27.7423 28.9043 26.4845 28.0237 25.9274 26.7771H23.7208C22.9374 26.8003 22.2797 26.1984 22.2384 25.4196C22.1988 24.6426 22.79 23.9764 23.5716 23.9193C23.6202 23.9175 23.6705 23.9175 23.7208 23.9193H25.9309C26.4897 22.669 27.744 21.7849 29.1959 21.7849L29.194 21.7831ZM14.8586 23.6978C18.5404 23.6978 21.5557 26.6949 21.5557 30.3548V35.7557C21.5521 36.5434 20.9071 37.181 20.1129 37.1774H9.60647C8.81583 37.1757 8.17794 36.5398 8.17436 35.7557V30.3561C8.17436 26.6964 11.1769 23.6992 14.8586 23.6992V23.6978ZM35.2748 29.6204C36.7302 29.6204 37.988 30.5046 38.5433 31.7548H40.3689C40.7678 31.7245 41.1632 31.8602 41.4578 32.1317C41.7507 32.4014 41.9178 32.7819 41.9178 33.1802C41.9178 33.5785 41.7507 33.9589 41.4578 34.2286C41.1632 34.5001 40.7678 34.6358 40.3689 34.6055H38.5415C37.9845 35.8575 36.7285 36.7434 35.2766 36.7434C33.8247 36.7434 32.5579 35.8575 31.9973 34.6055H23.721C22.9591 34.6001 22.332 34.0053 22.2924 33.2498C22.2529 32.4943 22.8135 31.8388 23.5718 31.7549C23.6203 31.7531 23.6706 31.7531 23.7209 31.7549H31.9954C32.5542 30.5046 33.8228 29.6205 35.2783 29.6205L35.2748 29.6204Z" fill="black"/>
</svg>
