<?xml version="1.0" encoding="UTF-8"?>
<svg width="1200pt" height="1200pt" version="1.1" viewBox="0 0 1200 1200" xmlns="http://www.w3.org/2000/svg">
 <path d="m419.48 716.3h16.199c16.199 0 24.301-19.672 12.73-30.086l-84.473-83.316c-6.9414-6.9414-18.516-6.9414-25.457 0l-85.633 84.473c-11.57 11.57-3.4727 30.086 12.73 30.086h21.98c9.2578 0 16.199 6.9414 17.359 15.043 17.359 131.92 128.45 237.22 263.84 245.32 10.414 1.1562 19.672-6.9414 19.672-17.359v-57.859c0-9.2578-6.9414-17.359-16.199-17.359-82.16-8.1016-150.43-67.117-170.11-146.96-2.3164-11.57 6.9414-21.984 17.355-21.984z"/>
 <path transform="matrix(11.572 0 0 11.572 -140.6 138.86)" d="m79.8 26.4h-4.1001c-0.70011 0-0.99987 0.80003-0.59985 1.3l9.2 9.2c0.3001 0.3001 0.80003 0.3001 1.1001 0l9.2-9.2c0.49993-0.49993 0.099919-1.3-0.59985-1.3h-4.4002c-0.40001 0-0.70011-0.3001-0.80003-0.70011-1.3-12-11.4-21.5-23.8-21.9-0.40001 0-0.80003 0.3001-0.80003 0.80003v6.6001c0 0.40002 0.3001 0.80003 0.80003 0.80003 7.8001 0.40001 14.2 6.1001 15.5 13.5 0.09992 0.49993-0.20018 0.89995-0.70011 0.89995z" fill="none" stroke="#000" stroke-miterlimit="10" stroke-width=".75"/>
 <path d="m1077.9 869.05c0 116.95-94.812 211.76-211.77 211.76s-211.77-94.809-211.77-211.76c0-116.96 94.812-211.77 211.77-211.77s211.77 94.809 211.77 211.77"/>
 <path transform="matrix(11.572 0 0 11.572 -140.6 138.86)" d="m58.2 16c0 10.107-8.193 18.3-18.3 18.3-10.107 0-18.3-8.1934-18.3-18.3 0-10.107 8.193-18.3 18.3-18.3 10.107 0 18.3 8.1934 18.3 18.3" fill="none" stroke="#000" stroke-miterlimit="10" stroke-width=".75"/>
</svg>
