<?xml version="1.0" encoding="UTF-8"?>
<svg width="1200pt" height="1200pt" version="1.1" viewBox="0 0 1200 1200" xmlns="http://www.w3.org/2000/svg">
 <g>
  <path d="m526.44 1003.9v-240.72c-60 0-120.96 3.1211-179.04 8.3984 37.676 136.08 105.24 223.68 179.04 232.32z"/>
  <path d="m672 908.16-32.879-142.8c-29.398-1.3203-59.16-1.9219-88.922-2.1602v240.72c44.879-5.2812 87.242-39.363 121.8-95.762z"/>
  <path d="m550.44 72.961v240c60.602 0 120.96-3.1211 179.04-8.2812-37.801-135.48-105.48-223.2-179.04-231.72z"/>
  <path d="m348 305.28c57.961 5.1602 118.32 8.0391 179.04 8.2812v-240c-74.398 7.918-141.96 95.637-179.04 231.72z"/>
  <path d="m613.68 654.12c-2.6133-11.332 0.79297-23.207 9.0117-31.43 8.2227-8.2188 20.098-11.625 31.43-9.0117l100.32 23.16c2.8789-28.441 4.5586-57.359 4.9219-86.398h-208.92v188.76c27.84 0 55.68 0.83984 83.281 2.0391z"/>
  <path d="m317.4 526.44h209.04v-188.76c-63.121 0-125.28-3.3594-185.16-8.8789-15.246 64.793-23.254 131.08-23.883 197.64z"/>
  <path d="m735.6 328.8c-60 5.5195-122.04 8.5195-185.16 8.8789v188.76h208.92c-0.58594-66.559-8.5547-132.84-23.758-197.64z"/>
  <path d="m341.28 747.96c60-5.5195 122.4-8.3984 185.16-8.7617v-188.76h-209.04c0.63672 66.52 8.6445 132.76 23.883 197.52z"/>
  <path d="m323.16 773.88c-57.324 5.7266-114.32 14.379-170.76 25.922 1.1992 1.8008 2.2812 3.6016 3.4805 5.2812l8.1602 11.281c3.1211 4.0781 6.1211 8.1602 9.2383 12 3.1211 3.8398 5.7617 7.1992 8.7617 10.68l9.8398 11.398 9.3594 9.9609c3.4805 3.7188 6.9609 7.1992 10.559 10.68l9.7188 9.4805 11.16 9.9609 10.32 8.7617 12 9.2383c3.6016 2.7617 7.0781 5.5195 10.68 8.0391 3.6016 2.5195 8.1602 5.7617 12 8.5195 3.8398 2.7617 7.3203 5.0391 11.16 7.4414 3.8398 2.3984 8.5195 5.1602 12.84 7.6797 4.3203 2.5195 7.5586 4.5586 12 6.7188 4.4414 2.1602 8.8789 4.6797 13.32 6.9609s7.8008 4.0781 12 5.8789l13.922 6.2383 12 5.1602c4.6797 1.9219 9.6016 3.6016 14.398 5.3984 4.8008 1.8008 8.0391 3 12 4.3203 3.9609 1.3203 10.078 3.1211 15.121 4.5586 5.0391 1.4414 8.1602 2.5195 12 3.6016 3.8398 1.0781 10.559 2.5195 15.84 3.7188l12 2.7617c1.3203 0 2.6406 0 3.9609 0.71875-54.238-40.918-99-119.04-127.08-222.36z"/>
  <path d="m753.72 303c57.176-5.7266 114.01-14.418 170.28-26.039l-3.6016-5.3984c-2.5195-3.7188-5.1602-7.3203-7.8008-10.922s-6.6016-8.7617-9.9609-12.961c-3.3594-4.1992-5.1602-6.3594-7.8008-9.4805-2.6406-3.1211-7.5586-8.8789-11.398-13.199l-7.4375-7.9219c-4.4414-4.5586-8.7617-9-13.32-13.441l-6.7188-6.4805c-4.9219-4.5586-9.9609-9-15-13.32-2.0391-1.8008-4.0781-3.6016-6.2383-5.2812-5.3984-4.5586-10.922-8.8789-16.559-13.078l-5.6406-4.3203c-6-4.3203-12-8.5195-18.238-12l-5.1602-3.4805c-6.3594-4.0781-12.84-7.9219-19.441-12l-5.0391-2.8789c-6.7188-3.7188-13.441-7.1992-20.281-10.559l-5.1602-2.5195c-6.8789-3.1992-13.84-6.3203-20.879-9.3594l-5.3984-2.2812c-6.9609-2.7617-14.039-5.3984-21.121-7.8008l-5.6445-2.2773c-6.9609-2.2812-13.922-4.3203-21-6.3594l-6.7188-1.9219c-6.9609-1.8008-13.922-3.3594-21-4.9219l-7.3203-1.5586h-3.4805c53.641 40.32 99 118.32 127.08 221.76z"/>
  <path d="m626.76 996h3.6016l12-2.7617c5.2812-1.1992 10.559-2.2812 15.84-3.7188 5.2812-1.4414 8.1602-2.3984 12-3.6016 3.8398-1.1992 10.078-2.8789 15.121-4.5586l3.1211-1.0781-9.2383-39.961h-0.007812c-14.672 21.02-32.336 39.777-52.438 55.68z"/>
  <path d="m450.12 80.52-4.0781 0.71875-3.9609 0.83984c-8.2812 1.8008-16.441 3.6016-24.602 5.7617l-3.2383 0.96094c-8.2812 2.2812-16.441 4.6797-24.602 7.4414l-2.8789 0.96094c-8.1602 2.8789-16.199 5.7617-24 9l-2.7617 1.7969c-7.9219 3.2383-15.719 6.7188-24 10.441l-3 1.4414c-7.4414 3.7188-14.879 7.5586-22.199 12l-3.4805 2.0391c-7.0781 3.9609-14.039 8.1602-20.879 12l-4.1992 2.7617c-6.3594 4.3203-12.719 8.6406-19.078 13.199l-4.9219 3.7188c-5.8789 4.4414-12 8.8789-17.281 13.559l-5.7617 4.9219c-5.1602 4.4414-10.199 9-15.238 13.68-2.2812 2.0391-4.4414 4.1992-6.6016 6.3594-4.5586 4.3203-9 8.8789-13.32 13.441l-7.3203 7.9219c-3.9609 4.3203-7.8008 8.7617-12 13.199-4.1992 4.4414-5.1602 6.2383-7.6797 9.4805-2.5195 3.2383-6.7188 8.5195-9.9609 12.961l-7.9219 10.922-3.6016 5.3984 0.003906-0.003906c56.43 11.645 113.43 20.336 170.76 26.039 28.918-103.8 73.68-181.92 127.8-222.96z"/>
  <path d="m317.16 326.4c-59.984-6.0508-119.59-15.383-178.56-27.957-41.52 68.973-64.465 147.52-66.602 228h221.4c0.61719-67.348 8.5859-134.43 23.762-200.04z"/>
  <path d="m293.4 550.44h-221.4c1.9883 80.449 24.812 159.01 66.238 228 58.988-12.461 118.59-21.793 178.56-27.961-15.066-65.629-22.914-132.71-23.402-200.04z"/>
  <path d="m783.36 526.44h221.04c-1.9648-80.453-24.789-159.02-66.238-228-58.926 12.574-118.49 21.906-178.44 27.957 15.078 65.633 23.004 132.7 23.641 200.04z"/>
  <path d="m777.96 642.24 201.84 46.562c14.953-44.641 23.047-91.293 24-138.36h-220.44c-0.35938 30.84-2.1602 61.559-5.3984 91.797z"/>
  <path d="m1104.6 991.44-153.96-153.96c-2.6172-2.5742-3.9102-6.207-3.5156-9.8555 0.39844-3.6484 2.4453-6.9141 5.5547-8.8633l122.16-77.039v-0.003906c1.2852-0.70312 1.9648-2.1602 1.6797-3.5977-0.17578-1.4922-1.2891-2.6992-2.7578-3l-78.719-18.121-24-5.5234-195.96-45.238-24-5.5195-102.84-24c-3.2695-0.75-6.6953 0.19922-9.1172 2.5195-2.3867 2.3867-3.3398 5.8516-2.5195 9.1211l21.602 93.719 5.6406 24 25.441 110.28 8.0391 34.801 13.68 60 2.6406 12 2.7617 12 18.121 78.602h-0.007813c0.30078 1.4688 1.5117 2.582 3 2.7578 1.4414 0.32812 2.9258-0.36328 3.6016-1.6797l77.039-122.16c1.9609-3.1016 5.2305-5.1328 8.8789-5.5195h1.3203c3.207 0.011719 6.2773 1.3086 8.5195 3.6016l154.56 153.84c14.871 15.617 35.418 24.57 56.984 24.832 21.562 0.26172 42.32-8.1875 57.57-23.438s23.699-36.008 23.438-57.57c-0.26172-21.566-9.2148-42.113-24.832-56.984z"/>
 </g>
</svg>
